<svg id="Слой_1" data-name="Слой 1" xmlns="http://www.w3.org/2000/svg" viewBox="0 0 199.12 48.73"><defs><style>.cls-1{fill:#fff;}</style></defs><title>Монтажная область 1 копия 3</title><path class="cls-1" d="M45.6,23.22a6.83,6.83,0,0,0-1.82-4.49,6.13,6.13,0,0,0-4.25-1.24,5.92,5.92,0,0,0-5,2.35,7,7,0,0,0-1.24,2.48,10.75,10.75,0,0,0-.4,3,10.94,10.94,0,0,0,.4,3,6.66,6.66,0,0,0,1.24,2.48,6.05,6.05,0,0,0,2.17,1.7,7.28,7.28,0,0,0,3.17.63,5.46,5.46,0,0,0,3.72-1.06c.79-.7,1.87-1.73,2-4.89h5.76A16.36,16.36,0,0,1,50,32.73a9.35,9.35,0,0,1-2.3,2.91,10.43,10.43,0,0,1-3.49,1.93,14.69,14.69,0,0,1-4.73.69,12.41,12.41,0,0,1-5.31-1.09,11.53,11.53,0,0,1-3.86-2.88A13.51,13.51,0,0,1,28,30.17a11.1,11.1,0,0,1-.79-4.86A21.28,21.28,0,0,1,28,20.47a12.35,12.35,0,0,1,2.35-4.14,11.71,11.71,0,0,1,3.84-2.89,12.14,12.14,0,0,1,5.28-1.08,13.85,13.85,0,0,1,5.15.85,10.54,10.54,0,0,1,3.54,2.19,9,9,0,0,1,2.12,3.07,21.46,21.46,0,0,1,1.13,4.75Z"/><path class="cls-1" d="M68.62,18.46a8.91,8.91,0,0,0-1.14-.21A13.48,13.48,0,0,0,66,18.07a7.24,7.24,0,0,0-5.65,2.14q-2,2.14-2,6.79V37.62H52.58V13h5.76l.07,4.92h.13a4.64,4.64,0,0,1,.89-2.42A10,10,0,0,1,61.33,14a9.59,9.59,0,0,1,2.22-1,8.54,8.54,0,0,1,2.4-.34,8.37,8.37,0,0,1,2.67.49Z"/><path class="cls-1" d="M93.48,13V37.62H87.72V34.29a7.94,7.94,0,0,1-3.3,2.91,9.75,9.75,0,0,1-4.31,1.06,12.64,12.64,0,0,1-5.13-1,12,12,0,0,1-4-2.83,13.24,13.24,0,0,1-2.59-4.12,13.8,13.8,0,0,1,0-9.91A13.16,13.16,0,0,1,71,16.22a12,12,0,0,1,4-2.83,12.64,12.64,0,0,1,5.13-1,9.61,9.61,0,0,1,4.31,1.06,7.54,7.54,0,0,1,2.93,2.48l.4,1.53,0-1.56V13Zm-13,20a6.81,6.81,0,0,0,2.95-.63,7,7,0,0,0,2.27-1.67,7.53,7.53,0,0,0,1.46-2.45,8.64,8.64,0,0,0,0-6,7.42,7.42,0,0,0-1.46-2.45,6.9,6.9,0,0,0-2.27-1.67,6.81,6.81,0,0,0-2.95-.63,6.66,6.66,0,0,0-2.93.63,6.88,6.88,0,0,0-2.24,1.67,7.06,7.06,0,0,0-1.44,2.45,9.13,9.13,0,0,0,0,6,7.15,7.15,0,0,0,1.44,2.45,7,7,0,0,0,2.24,1.67A6.66,6.66,0,0,0,80.43,33Z"/><path class="cls-1" d="M126.93,37.62V23.3a8.76,8.76,0,0,0-1.08-4.68,3.84,3.84,0,0,0-3.51-1.71,5.4,5.4,0,0,0-2,.37,4,4,0,0,0-1.64,1.27,6.67,6.67,0,0,0-1.11,2.35,14.45,14.45,0,0,0-.39,3.67v13H111.4V23.25a9,9,0,0,0-1-4.65,3.73,3.73,0,0,0-3.46-1.69,5.64,5.64,0,0,0-2.07.37,3.93,3.93,0,0,0-1.66,1.27A6.87,6.87,0,0,0,102,20.9a13.47,13.47,0,0,0-.42,3.67v13H95.86V13h5.76v3.43a7,7,0,0,1,2.62-2.88,7.61,7.61,0,0,1,4.25-1.19,8.88,8.88,0,0,1,5.18,1.27,7.31,7.31,0,0,1,2.59,3.12,7.66,7.66,0,0,1,2.91-3.12,8.44,8.44,0,0,1,4.65-1.27,10.06,10.06,0,0,1,4.49.87A7.18,7.18,0,0,1,131,15.48a8.05,8.05,0,0,1,1.32,3.09,17.57,17.57,0,0,1,.34,3.46V37.62Z"/><path class="cls-1" d="M140.73,37.62H135V5.11h5.76V17.58a8.31,8.31,0,0,0,.16-1.5A7.42,7.42,0,0,1,144,13.42a9.58,9.58,0,0,1,4.31-1.06,12.67,12.67,0,0,1,5.13,1,12,12,0,0,1,4,2.83,13.16,13.16,0,0,1,2.59,4.15,13.8,13.8,0,0,1,0,9.91,13.24,13.24,0,0,1-2.59,4.12,12,12,0,0,1-4,2.83,12.67,12.67,0,0,1-5.13,1A9.72,9.72,0,0,1,144,37.2a7.88,7.88,0,0,1-3.3-2.91ZM148,33a6.66,6.66,0,0,0,2.93-.63,7,7,0,0,0,2.24-1.67,7.15,7.15,0,0,0,1.44-2.45,9.13,9.13,0,0,0,0-6,7.06,7.06,0,0,0-1.44-2.45A6.88,6.88,0,0,0,151,18.21a6.66,6.66,0,0,0-2.93-.63,6.94,6.94,0,0,0-3,.63,6.8,6.8,0,0,0-2.27,1.67,7.06,7.06,0,0,0-1.44,2.45,9.13,9.13,0,0,0,0,6,7.15,7.15,0,0,0,1.44,2.45A6.94,6.94,0,0,0,148,33Z"/><path class="cls-1" d="M162.4,5.11h5.76V37.62H162.4Z"/><path class="cls-1" d="M175.45,27.05a11,11,0,0,0,.48,2.49,5.71,5.71,0,0,0,1.14,2,5.33,5.33,0,0,0,2,1.38,8,8,0,0,0,3,.5,6.24,6.24,0,0,0,4-1.22,4.56,4.56,0,0,0,1.31-2.91h5.81a10.49,10.49,0,0,1-1.27,4,8.79,8.79,0,0,1-2.2,2.53,11.49,11.49,0,0,1-3.33,1.77,13,13,0,0,1-4.28.66,13.48,13.48,0,0,1-5.42-1,10.66,10.66,0,0,1-3.83-2.75,11.45,11.45,0,0,1-2.3-4.12,16.41,16.41,0,0,1-.76-5.07,15.59,15.59,0,0,1,.82-5.13,12.11,12.11,0,0,1,2.35-4.12,10.53,10.53,0,0,1,3.8-2.72,13,13,0,0,1,5.18-1,11.66,11.66,0,0,1,4.47.85A11.12,11.12,0,0,1,190,15.56a10.73,10.73,0,0,1,2.43,3.51,13.85,13.85,0,0,1,1,4.57,28.64,28.64,0,0,1-.05,3.43ZM182,16.69a7.2,7.2,0,0,0-4.7,1.54,5.51,5.51,0,0,0-1.88,4.54h12.82a5.77,5.77,0,0,0-1.74-4.46A6.34,6.34,0,0,0,182,16.69Z"/><path class="cls-1" d="M26.29,28a5.8,5.8,0,0,0-1.51-1.9,8.68,8.68,0,0,0-2.16-1.32c-.82-.35-1.64-.69-2.49-1-1.13-.42-2.11-.78-3-1.08a22.29,22.29,0,0,1-2.11-.85,3.59,3.59,0,0,1-1.27-.89,2,2,0,0,1-.42-1.3,2.26,2.26,0,0,1,1-2,4.48,4.48,0,0,1,2.51-.68,4.86,4.86,0,0,1,3,1,3.25,3.25,0,0,1,1.23,3.19l.36.41h4.75a6.67,6.67,0,0,0-.56-4.16,9.12,9.12,0,0,0-2-2.64,9.52,9.52,0,0,0-3-1.74,10.38,10.38,0,0,0-3.67-.64,13.64,13.64,0,0,0-3.57.45,8.89,8.89,0,0,0-2.93,1.37,7,7,0,0,0-2,2.25,6.09,6.09,0,0,0-.74,3.07,7.64,7.64,0,0,0,.42,2.69A4.79,4.79,0,0,0,9.46,24a8.39,8.39,0,0,0,1.87,1.3,23.36,23.36,0,0,0,2.35,1c1.31.49,2.44.89,3.39,1.21a21.83,21.83,0,0,1,2.37.93,4.5,4.5,0,0,1,1.43,1,2,2,0,0,1,.48,1.38,2.32,2.32,0,0,1-1.17,2.22,5.89,5.89,0,0,1-2.85.63,6.55,6.55,0,0,1-3.41-1,3.62,3.62,0,0,1-1.48-4.34L12.08,28H7.21a8.89,8.89,0,0,0,.58,5.19A8.36,8.36,0,0,0,10,36a9.57,9.57,0,0,0,3.2,1.71,12.19,12.19,0,0,0,3.8.59,15.66,15.66,0,0,0,3.81-.45A9.46,9.46,0,0,0,24,36.43a6.55,6.55,0,0,0,2.12-2.35,6.94,6.94,0,0,0,.76-3.33A6.24,6.24,0,0,0,26.29,28Z"/></svg>